<svg width="48" height="43" viewBox="0 0 48 43" fill="none" xmlns="http://www.w3.org/2000/svg">
<g filter="url(#filter0_d)">
<path d="M12.3333 5H15.6667V8.33333H12.3333V16.6667C12.3333 17.5507 11.9821 18.3986 11.357 19.0237C10.7319 19.6488 9.88405 20 9 20C9.88405 20 10.7319 20.3512 11.357 20.9763C11.9821 21.6014 12.3333 22.4493 12.3333 23.3333V31.6667H15.6667V35H12.3333C10.55 34.55 9 33.5 9 31.6667V25C9 24.1159 8.64881 23.2681 8.02369 22.643C7.39857 22.0179 6.55072 21.6667 5.66667 21.6667H4V18.3333H5.66667C6.55072 18.3333 7.39857 17.9821 8.02369 17.357C8.64881 16.7319 9 15.8841 9 15V8.33333C9 7.44928 9.35119 6.60143 9.97631 5.97631C10.6014 5.35119 11.4493 5 12.3333 5ZM35.6667 5C36.5507 5 37.3986 5.35119 38.0237 5.97631C38.6488 6.60143 39 7.44928 39 8.33333V15C39 15.8841 39.3512 16.7319 39.9763 17.357C40.6014 17.9821 41.4493 18.3333 42.3333 18.3333H44V21.6667H42.3333C41.4493 21.6667 40.6014 22.0179 39.9763 22.643C39.3512 23.2681 39 24.1159 39 25V31.6667C39 32.5507 38.6488 33.3986 38.0237 34.0237C37.3986 34.6488 36.5507 35 35.6667 35H32.3333V31.6667H35.6667V23.3333C35.6667 22.4493 36.0179 21.6014 36.643 20.9763C37.2681 20.3512 38.1159 20 39 20C38.1159 20 37.2681 19.6488 36.643 19.0237C36.0179 18.3986 35.6667 17.5507 35.6667 16.6667V8.33333H32.3333V5H35.6667ZM24 25C24.442 25 24.8659 25.1756 25.1785 25.4882C25.4911 25.8007 25.6667 26.2246 25.6667 26.6667C25.6667 27.1087 25.4911 27.5326 25.1785 27.8452C24.8659 28.1577 24.442 28.3333 24 28.3333C23.558 28.3333 23.134 28.1577 22.8215 27.8452C22.5089 27.5326 22.3333 27.1087 22.3333 26.6667C22.3333 26.2246 22.5089 25.8007 22.8215 25.4882C23.134 25.1756 23.558 25 24 25ZM17.3333 25C17.7754 25 18.1993 25.1756 18.5118 25.4882C18.8244 25.8007 19 26.2246 19 26.6667C19 27.1087 18.8244 27.5326 18.5118 27.8452C18.1993 28.1577 17.7754 28.3333 17.3333 28.3333C16.8913 28.3333 16.4674 28.1577 16.1548 27.8452C15.8423 27.5326 15.6667 27.1087 15.6667 26.6667C15.6667 26.2246 15.8423 25.8007 16.1548 25.4882C16.4674 25.1756 16.8913 25 17.3333 25ZM30.6667 25C31.1087 25 31.5326 25.1756 31.8452 25.4882C32.1577 25.8007 32.3333 26.2246 32.3333 26.6667C32.3333 27.1087 32.1577 27.5326 31.8452 27.8452C31.5326 28.1577 31.1087 28.3333 30.6667 28.3333C30.2246 28.3333 29.8007 28.1577 29.4882 27.8452C29.1756 27.5326 29 27.1087 29 26.6667C29 26.2246 29.1756 25.8007 29.4882 25.4882C29.8007 25.1756 30.2246 25 30.6667 25Z" fill="#F3F2F0"/>
</g>
<defs>
<filter id="filter0_d" x="0" y="0" width="48" height="48" filterUnits="userSpaceOnUse" color-interpolation-filters="sRGB">
<feFlood flood-opacity="0" result="BackgroundImageFix"/>
<feColorMatrix in="SourceAlpha" type="matrix" values="0 0 0 0 0 0 0 0 0 0 0 0 0 0 0 0 0 0 127 0"/>
<feOffset dy="4"/>
<feGaussianBlur stdDeviation="2"/>
<feColorMatrix type="matrix" values="0 0 0 0 0 0 0 0 0 0 0 0 0 0 0 0 0 0 0.25 0"/>
<feBlend mode="normal" in2="BackgroundImageFix" result="effect1_dropShadow"/>
<feBlend mode="normal" in="SourceGraphic" in2="effect1_dropShadow" result="shape"/>
</filter>
</defs>
</svg>
